Coordinates
version=1
nRows=49
nColumns=12
inDegrees=yes

Units are S.I. units (second, meters, Newtons, ...)
Angles are in degrees

endheader
time	SC_y	SC_z	SC_x	AC_y	AC_z	AC_x	GH_y	GH_z	GH_yy	EL_x	PS_y
       0.0              -17.73          34.13           41.4          61.08         -7.163          19.16         -20.24          31.23          85.83          135.4          86.54
  0.003936              -17.73          34.12          41.39          61.07         -7.162          19.16         -20.24          31.24          85.84          135.3          86.54
  0.007872              -17.73          34.12          41.39          61.07          -7.16          19.15         -20.24          31.24          85.84          135.3          86.55
   0.01181              -17.73          34.11          41.38          61.06         -7.158          19.15         -20.24          31.25          85.84          135.3          86.56
   0.01574              -17.74           34.1          41.38          61.06         -7.156          19.15         -20.24          31.26          85.85          135.3          86.57
   0.01968              -17.74           34.1          41.37          61.05         -7.154          19.14         -20.23          31.27          85.85          135.3          86.58
   0.02362              -17.74          34.09          41.36          61.05         -7.151          19.14         -20.23          31.27          85.86          135.3          86.59
   0.02755              -17.74          34.08          41.36          61.04         -7.149          19.13         -20.23          31.28          85.86          135.3           86.6
   0.03149              -17.75          34.07          41.35          61.03         -7.146          19.13         -20.23          31.29          85.87          135.3          86.61
   0.03542              -17.75          34.06          41.34          61.03         -7.143          19.12         -20.23           31.3          85.87          135.2          86.63
   0.03936              -17.75          34.06          41.34          61.02          -7.14          19.12         -20.23          31.31          85.88          135.2          86.64
    0.0433              -17.75          34.04          41.33          61.01         -7.137          19.11         -20.23          31.32          85.89          135.2          86.66
   0.04723              -17.76          34.03          41.32           61.0         -7.133          19.11         -20.23          31.33          85.89          135.2          86.67
   0.05117              -17.76          34.02          41.31          60.99          -7.13           19.1         -20.23          31.35           85.9          135.2          86.69
   0.05511              -17.77          34.01           41.3          60.98         -7.125          19.09         -20.23          31.36          85.91          135.1          86.71
   0.05904              -17.77          33.99          41.28          60.97         -7.121          19.08         -20.23          31.38          85.92          135.1          86.73
   0.06298              -17.77          33.98          41.27          60.96         -7.116          19.08         -20.23          31.39          85.93          135.1          86.76
   0.06691              -17.78          33.96          41.26          60.94         -7.111          19.07         -20.22          31.41          85.94          135.0          86.78
   0.07085              -17.79          33.94          41.24          60.93         -7.105          19.06         -20.22          31.43          85.95          135.0          86.81
   0.07479              -17.79          33.92          41.23          60.91         -7.098          19.04         -20.22          31.45          85.97          135.0          86.84
   0.07872               -17.8           33.9          41.21           60.9         -7.091          19.03         -20.22          31.48          85.98          134.9          86.87
   0.08266              -17.81          33.88          41.19          60.88         -7.084          19.02         -20.22           31.5           86.0          134.9           86.9
   0.08659              -17.81          33.85          41.17          60.86         -7.075           19.0         -20.22          31.53          86.02          134.8          86.94
   0.09053              -17.82          33.82          41.14          60.83         -7.066          18.98         -20.21          31.57          86.04          134.8          86.99
   0.09447              -17.83          33.79          41.11          60.81         -7.055          18.97         -20.21           31.6          86.06          134.7          87.04
    0.0984              -17.84          33.75          41.08          60.78         -7.044          18.94         -20.21          31.64          86.08          134.7          87.09
    0.1023              -17.86          33.71          41.05          60.74         -7.031          18.92         -20.21          31.69          86.11          134.6          87.15
    0.1063              -17.87          33.67          41.01          60.71         -7.016          18.89          -20.2          31.74          86.14          134.5          87.22
    0.1102              -17.89          33.61          40.97          60.67         -6.999          18.86          -20.2           31.8          86.17          134.4           87.3
    0.1141              -17.91          33.55          40.92          60.62          -6.98          18.83         -20.19          31.86          86.21          134.3          87.39
    0.1181              -17.93          33.49          40.86          60.56         -6.959          18.79         -20.19          31.93          86.26          134.2          87.49
     0.122              -17.95          33.41          40.79           60.5         -6.934          18.75         -20.18          32.02          86.31          134.0           87.6
     0.126              -17.98          33.32          40.72          60.43         -6.905           18.7         -20.18          32.12          86.37          133.9          87.73
    0.1299              -18.01          33.22          40.63          60.35         -6.872          18.64         -20.17          32.23          86.44          133.7          87.89
    0.1338              -18.05          33.09          40.53          60.25         -6.833          18.57         -20.16          32.36          86.52          133.4          88.07
    0.1378              -18.09          32.95          40.41          60.14         -6.788          18.48         -20.15          32.52          86.61          133.2          88.28
    0.1417              -18.14          32.78          40.27           60.0         -6.733          18.38         -20.14          32.71          86.73          132.8          88.54
    0.1456              -18.21          32.58           40.1          59.84         -6.668          18.27         -20.12          32.93          86.86          132.5          88.84
    0.1496              -18.28          32.33          39.89          59.64         -6.589          18.12          -20.1           33.2          87.03          132.0          89.21
    0.1535              -18.38          32.03          39.64           59.4         -6.492          17.95         -20.08          33.53          87.23          131.4          89.66
    0.1574              -18.49          31.65          39.33           59.1         -6.373          17.73         -20.05          33.94          87.47          130.8          90.21
    0.1614              -18.63          31.19          38.94          58.73         -6.225          17.47         -20.02          34.45          87.78          129.9           90.9
    0.1653              -18.82           30.6          38.45          58.26         -6.038          17.13         -19.98          35.09          88.17          128.8          91.77
    0.1693              -19.04          29.86          37.82          57.66           -5.8           16.7         -19.92          35.91          88.66          127.4          92.88
    0.1732              -19.34          28.91          37.03           56.9         -5.496          16.15         -19.85          36.95          89.29          125.6          94.29
    0.1771              -19.72          27.68           36.0          55.93         -5.106          15.45         -19.76          38.29           90.1          123.4          96.11
    0.1811               -20.2          26.12           34.7          54.68         -4.607          14.55         -19.64           40.0          91.14          120.5          98.43
     0.185               -20.8          24.16          33.05          53.11          -3.98          13.41          -19.5          42.16          92.44          116.8          101.3
    0.1889              -21.54          21.76          31.05          51.19         -3.216          12.03         -19.32          44.78          94.03          112.4          104.9
